{
	"asset":{
		"generator":"Khronos glTF Blender I/O v4.0.44",
		"version":"2.0"
	},
	"scene":0,
	"scenes":[
		{
			"name":"Scene",
			"nodes":[
				0
			]
		}
	],
	"nodes":[
		{
			"mesh":0,
			"name":"Mesh_0",
			"rotation":[
				0.0049704392440617085,
				-0.2071027308702469,
				0.0005425954586826265,
				0.9783065319061279
			],
			"translation":[
				0,
				-0.5103489756584167,
				0
			]
		}
	],
	"materials":[
		{
			"name":"Material_0",
			"normalTexture":{
				"index":0
			},
			"occlusionTexture":{
				"index":1
			},
			"pbrMetallicRoughness":{
				"baseColorTexture":{
					"index":2
				},
				"metallicFactor":0
			}
		},
		{
			"doubleSided":true,
			"name":"Material.001",
			"pbrMetallicRoughness":{
				"baseColorFactor":[
					0.252264142036438,
					0.23159252107143402,
					0.2414737343788147,
					1
				],
				"metallicFactor":0,
				"roughnessFactor":0.5
			}
		}
	],
	"meshes":[
		{
			"name":"Mesh_0",
			"primitives":[
				{
					"attributes":{
						"POSITION":0,
						"NORMAL":1,
						"TEXCOORD_0":2
					},
					"indices":3,
					"material":0
				},
				{
					"attributes":{
						"POSITION":4,
						"NORMAL":5,
						"TEXCOORD_0":6
					},
					"indices":7,
					"material":1
				}
			]
		}
	],
	"textures":[
		{
			"sampler":0,
			"source":0
		},
		{
			"sampler":0,
			"source":1
		},
		{
			"sampler":0,
			"source":2
		}
	],
	"images":[
		{
			"mimeType":"image/jpeg",
			"name":"Image_0",
			"uri":"Image_0.jpg"
		},
		{
			"mimeType":"image/jpeg",
			"name":"Image_1",
			"uri":"Image_1.jpg"
		},
		{
			"mimeType":"image/jpeg",
			"name":"Image_2",
			"uri":"Image_2.jpg"
		}
	],
	"accessors":[
		{
			"bufferView":0,
			"componentType":5126,
			"count":142078,
			"max":[
				0.6939557790756226,
				1.3019416332244873,
				0.5463684797286987
			],
			"min":[
				-0.7855925559997559,
				0.5329678654670715,
				-0.8918430805206299
			],
			"type":"VEC3"
		},
		{
			"bufferView":1,
			"componentType":5126,
			"count":142078,
			"type":"VEC3"
		},
		{
			"bufferView":2,
			"componentType":5126,
			"count":142078,
			"type":"VEC2"
		},
		{
			"bufferView":3,
			"componentType":5125,
			"count":142110,
			"type":"SCALAR"
		},
		{
			"bufferView":4,
			"componentType":5126,
			"count":24,
			"max":[
				0.7639462947845459,
				0.66660475730896,
				0.638877809047699
			],
			"min":[
				-0.903366208076477,
				0.4897488057613373,
				-0.9366088509559631
			],
			"type":"VEC3"
		},
		{
			"bufferView":5,
			"componentType":5126,
			"count":24,
			"type":"VEC3"
		},
		{
			"bufferView":6,
			"componentType":5126,
			"count":24,
			"type":"VEC2"
		},
		{
			"bufferView":7,
			"componentType":5123,
			"count":36,
			"type":"SCALAR"
		}
	],
	"bufferViews":[
		{
			"buffer":0,
			"byteLength":1704936,
			"byteOffset":0,
			"target":34962
		},
		{
			"buffer":0,
			"byteLength":1704936,
			"byteOffset":1704936,
			"target":34962
		},
		{
			"buffer":0,
			"byteLength":1136624,
			"byteOffset":3409872,
			"target":34962
		},
		{
			"buffer":0,
			"byteLength":568440,
			"byteOffset":4546496,
			"target":34963
		},
		{
			"buffer":0,
			"byteLength":288,
			"byteOffset":5114936,
			"target":34962
		},
		{
			"buffer":0,
			"byteLength":288,
			"byteOffset":5115224,
			"target":34962
		},
		{
			"buffer":0,
			"byteLength":192,
			"byteOffset":5115512,
			"target":34962
		},
		{
			"buffer":0,
			"byteLength":72,
			"byteOffset":5115704,
			"target":34963
		}
	],
	"samplers":[
		{
			"magFilter":9729,
			"minFilter":9987
		}
	],
	"buffers":[
		{
			"byteLength":5115776,
			"uri":"nandi.bin"
		}
	]
}
